<mxfile host="app.diagrams.net" modified="2022-09-29T12:02:04.285Z" agent="5.0 (Macintosh; Intel Mac OS X 10_15_7) AppleWebKit/537.36 (KHTML, like Gecko) Chrome/105.0.0.0 Safari/537.36" etag="UOONyyhE-nZl6NTnTAvp" version="20.3.7" type="github">
  <diagram id="fCBSzjnJQlCeP396MPFD" name="第 1 页">
    <mxGraphModel dx="946" dy="614" grid="0" gridSize="10" guides="1" tooltips="1" connect="1" arrows="1" fold="1" page="0" pageScale="1" pageWidth="1169" pageHeight="1654" math="0" shadow="0">
      <root>
        <mxCell id="0" />
        <mxCell id="1" parent="0" />
        <mxCell id="bpGPjzyuG9bihOp7Tieq-1" value="" style="rounded=0;whiteSpace=wrap;html=1;strokeWidth=1;" vertex="1" parent="1">
          <mxGeometry x="170" y="230" width="560" height="230" as="geometry" />
        </mxCell>
        <mxCell id="bpGPjzyuG9bihOp7Tieq-2" value="" style="whiteSpace=wrap;html=1;aspect=fixed;strokeWidth=2;strokeColor=#B9E0A5;rounded=1;" vertex="1" parent="1">
          <mxGeometry x="210" y="290" width="80" height="80" as="geometry" />
        </mxCell>
        <mxCell id="bpGPjzyuG9bihOp7Tieq-3" value="P1" style="rounded=1;whiteSpace=wrap;html=1;fillColor=#ffe6cc;strokeColor=#d79b00;" vertex="1" parent="1">
          <mxGeometry x="225" y="320" width="50" height="40" as="geometry" />
        </mxCell>
        <mxCell id="bpGPjzyuG9bihOp7Tieq-4" value="Primary" style="text;html=1;strokeColor=none;fillColor=none;align=center;verticalAlign=middle;whiteSpace=wrap;rounded=0;" vertex="1" parent="1">
          <mxGeometry x="220" y="290" width="60" height="30" as="geometry" />
        </mxCell>
        <mxCell id="bpGPjzyuG9bihOp7Tieq-5" value="" style="whiteSpace=wrap;html=1;aspect=fixed;rounded=1;strokeWidth=2;strokeColor=#97D077;" vertex="1" parent="1">
          <mxGeometry x="410" y="290" width="80" height="80" as="geometry" />
        </mxCell>
        <mxCell id="bpGPjzyuG9bihOp7Tieq-6" value="" style="whiteSpace=wrap;html=1;aspect=fixed;strokeWidth=2;strokeColor=#97D077;rounded=1;dashed=1;" vertex="1" parent="1">
          <mxGeometry x="610" y="290" width="80" height="80" as="geometry" />
        </mxCell>
        <mxCell id="bpGPjzyuG9bihOp7Tieq-7" value="Replica" style="text;html=1;strokeColor=none;fillColor=none;align=center;verticalAlign=middle;whiteSpace=wrap;rounded=0;" vertex="1" parent="1">
          <mxGeometry x="420" y="290" width="60" height="30" as="geometry" />
        </mxCell>
        <mxCell id="bpGPjzyuG9bihOp7Tieq-8" value="Remote Replica" style="text;html=1;strokeColor=none;fillColor=none;align=center;verticalAlign=middle;whiteSpace=wrap;rounded=0;" vertex="1" parent="1">
          <mxGeometry x="620" y="290" width="60" height="30" as="geometry" />
        </mxCell>
        <mxCell id="bpGPjzyuG9bihOp7Tieq-9" value="R1" style="rounded=1;whiteSpace=wrap;html=1;fillColor=#ffe6cc;strokeColor=#d79b00;" vertex="1" parent="1">
          <mxGeometry x="425" y="320" width="50" height="40" as="geometry" />
        </mxCell>
        <mxCell id="bpGPjzyuG9bihOp7Tieq-10" value="R1&#39;" style="rounded=1;whiteSpace=wrap;html=1;fillColor=#ffe6cc;strokeColor=#d79b00;" vertex="1" parent="1">
          <mxGeometry x="625" y="320" width="50" height="40" as="geometry" />
        </mxCell>
        <mxCell id="bpGPjzyuG9bihOp7Tieq-11" value="" style="endArrow=classic;html=1;rounded=0;entryX=0.5;entryY=1;entryDx=0;entryDy=0;fillColor=#fff2cc;strokeColor=#d6b656;strokeWidth=2;" edge="1" parent="1" target="bpGPjzyuG9bihOp7Tieq-4">
          <mxGeometry width="50" height="50" relative="1" as="geometry">
            <mxPoint x="249.5" y="170" as="sourcePoint" />
            <mxPoint x="249.5" y="290" as="targetPoint" />
          </mxGeometry>
        </mxCell>
        <mxCell id="bpGPjzyuG9bihOp7Tieq-12" style="edgeStyle=orthogonalEdgeStyle;orthogonalLoop=1;jettySize=auto;html=1;exitX=0.5;exitY=1;exitDx=0;exitDy=0;entryX=0.5;entryY=1;entryDx=0;entryDy=0;elbow=vertical;curved=1;fillColor=#e1d5e7;strokeColor=#9673a6;strokeWidth=2;" edge="1" parent="1" source="bpGPjzyuG9bihOp7Tieq-3" target="bpGPjzyuG9bihOp7Tieq-10">
          <mxGeometry relative="1" as="geometry">
            <Array as="points">
              <mxPoint x="250" y="410" />
              <mxPoint x="650" y="410" />
            </Array>
          </mxGeometry>
        </mxCell>
        <mxCell id="bpGPjzyuG9bihOp7Tieq-13" style="edgeStyle=orthogonalEdgeStyle;curved=1;orthogonalLoop=1;jettySize=auto;html=1;exitX=0.5;exitY=1;exitDx=0;exitDy=0;elbow=vertical;fillColor=#e1d5e7;strokeColor=#9673a6;strokeWidth=2;" edge="1" parent="1" source="bpGPjzyuG9bihOp7Tieq-3">
          <mxGeometry relative="1" as="geometry">
            <mxPoint x="450" y="360" as="targetPoint" />
            <Array as="points">
              <mxPoint x="250" y="390" />
              <mxPoint x="450" y="390" />
            </Array>
          </mxGeometry>
        </mxCell>
        <mxCell id="bpGPjzyuG9bihOp7Tieq-14" value="DataNode 1" style="text;html=1;strokeColor=none;fillColor=none;align=center;verticalAlign=middle;whiteSpace=wrap;rounded=0;strokeWidth=2;" vertex="1" parent="1">
          <mxGeometry x="210" y="420" width="80" height="30" as="geometry" />
        </mxCell>
        <mxCell id="bpGPjzyuG9bihOp7Tieq-15" value="DataNode 2" style="text;html=1;strokeColor=none;fillColor=none;align=center;verticalAlign=middle;whiteSpace=wrap;rounded=0;strokeWidth=2;" vertex="1" parent="1">
          <mxGeometry x="410" y="420" width="80" height="30" as="geometry" />
        </mxCell>
        <mxCell id="bpGPjzyuG9bihOp7Tieq-17" value="Cluster 1" style="text;html=1;strokeColor=none;fillColor=none;align=center;verticalAlign=middle;whiteSpace=wrap;rounded=0;strokeWidth=2;" vertex="1" parent="1">
          <mxGeometry x="410" y="240" width="60" height="30" as="geometry" />
        </mxCell>
        <mxCell id="bpGPjzyuG9bihOp7Tieq-18" value="" style="rounded=0;whiteSpace=wrap;html=1;strokeWidth=1;" vertex="1" parent="1">
          <mxGeometry x="810" y="230" width="370" height="230" as="geometry" />
        </mxCell>
        <mxCell id="bpGPjzyuG9bihOp7Tieq-19" value="" style="whiteSpace=wrap;html=1;aspect=fixed;strokeWidth=2;strokeColor=#B9E0A5;rounded=1;" vertex="1" parent="1">
          <mxGeometry x="850" y="290" width="80" height="80" as="geometry" />
        </mxCell>
        <mxCell id="bpGPjzyuG9bihOp7Tieq-20" value="P1" style="rounded=1;whiteSpace=wrap;html=1;fillColor=#ffe6cc;strokeColor=#d79b00;" vertex="1" parent="1">
          <mxGeometry x="865" y="320" width="50" height="40" as="geometry" />
        </mxCell>
        <mxCell id="bpGPjzyuG9bihOp7Tieq-21" value="Primary" style="text;html=1;strokeColor=none;fillColor=none;align=center;verticalAlign=middle;whiteSpace=wrap;rounded=0;" vertex="1" parent="1">
          <mxGeometry x="860" y="290" width="60" height="30" as="geometry" />
        </mxCell>
        <mxCell id="bpGPjzyuG9bihOp7Tieq-22" value="" style="whiteSpace=wrap;html=1;aspect=fixed;rounded=1;strokeWidth=2;strokeColor=#97D077;" vertex="1" parent="1">
          <mxGeometry x="1050" y="290" width="80" height="80" as="geometry" />
        </mxCell>
        <mxCell id="bpGPjzyuG9bihOp7Tieq-24" value="Replica" style="text;html=1;strokeColor=none;fillColor=none;align=center;verticalAlign=middle;whiteSpace=wrap;rounded=0;" vertex="1" parent="1">
          <mxGeometry x="1060" y="290" width="60" height="30" as="geometry" />
        </mxCell>
        <mxCell id="bpGPjzyuG9bihOp7Tieq-26" value="R1" style="rounded=1;whiteSpace=wrap;html=1;fillColor=#ffe6cc;strokeColor=#d79b00;" vertex="1" parent="1">
          <mxGeometry x="1065" y="320" width="50" height="40" as="geometry" />
        </mxCell>
        <mxCell id="bpGPjzyuG9bihOp7Tieq-30" style="edgeStyle=orthogonalEdgeStyle;curved=1;orthogonalLoop=1;jettySize=auto;html=1;exitX=0.5;exitY=1;exitDx=0;exitDy=0;elbow=vertical;fillColor=#e1d5e7;strokeColor=#9673a6;strokeWidth=2;" edge="1" parent="1" source="bpGPjzyuG9bihOp7Tieq-20">
          <mxGeometry relative="1" as="geometry">
            <mxPoint x="1090" y="360" as="targetPoint" />
            <Array as="points">
              <mxPoint x="890" y="390" />
              <mxPoint x="1090" y="390" />
            </Array>
          </mxGeometry>
        </mxCell>
        <mxCell id="bpGPjzyuG9bihOp7Tieq-31" value="DataNode 1" style="text;html=1;strokeColor=none;fillColor=none;align=center;verticalAlign=middle;whiteSpace=wrap;rounded=0;strokeWidth=2;" vertex="1" parent="1">
          <mxGeometry x="850" y="420" width="80" height="30" as="geometry" />
        </mxCell>
        <mxCell id="bpGPjzyuG9bihOp7Tieq-32" value="DataNode 2" style="text;html=1;strokeColor=none;fillColor=none;align=center;verticalAlign=middle;whiteSpace=wrap;rounded=0;strokeWidth=2;" vertex="1" parent="1">
          <mxGeometry x="1050" y="420" width="80" height="30" as="geometry" />
        </mxCell>
        <mxCell id="bpGPjzyuG9bihOp7Tieq-34" value="Cluster 2" style="text;html=1;strokeColor=none;fillColor=none;align=center;verticalAlign=middle;whiteSpace=wrap;rounded=0;strokeWidth=2;" vertex="1" parent="1">
          <mxGeometry x="960" y="240" width="60" height="30" as="geometry" />
        </mxCell>
        <mxCell id="bpGPjzyuG9bihOp7Tieq-38" style="edgeStyle=orthogonalEdgeStyle;rounded=0;orthogonalLoop=1;jettySize=auto;html=1;exitX=1;exitY=0.5;exitDx=0;exitDy=0;entryX=0;entryY=0.5;entryDx=0;entryDy=0;strokeWidth=2;fillColor=#ffe6cc;strokeColor=#d79b00;" edge="1" parent="1" source="bpGPjzyuG9bihOp7Tieq-10" target="bpGPjzyuG9bihOp7Tieq-20">
          <mxGeometry relative="1" as="geometry" />
        </mxCell>
      </root>
    </mxGraphModel>
  </diagram>
</mxfile>
